<?xml version="1.0" standalone="no"?>
<!DOCTYPE svg PUBLIC "-//W3C//DTD SVG 20010904//EN"
 "http://www.w3.org/TR/2001/REC-SVG-20010904/DTD/svg10.dtd">
<svg version="1.0" xmlns="http://www.w3.org/2000/svg"
 width="474.000000pt" height="474.000000pt" viewBox="0 0 474.000000 474.000000"
 preserveAspectRatio="xMidYMid meet">
<metadata>
Created by potrace 1.14, written by Peter Selinger 2001-2017
</metadata>
<g transform="translate(0.000000,474.000000) scale(0.100000,-0.100000)"
fill="#000000" stroke="none">
<path d="M1533 3704 c-116 -56 -162 -163 -130 -301 3 -11 9 -42 12 -67 9 -57
-6 -77 -74 -103 -25 -9 -48 -19 -51 -22 -3 -4 -30 -19 -60 -35 -30 -16 -92
-53 -137 -83 -45 -30 -97 -56 -115 -59 -20 -4 -73 5 -133 20 -55 15 -143 29
-197 32 -88 6 -100 4 -144 -17 -39 -20 -51 -33 -70 -74 -13 -31 -23 -74 -24
-110 -5 -152 -5 -185 1 -260 12 -143 44 -244 110 -345 36 -54 52 -104 65 -205
8 -61 50 -188 90 -270 67 -140 147 -235 342 -403 86 -74 181 -203 186 -253 1
-3 9 -13 18 -22 12 -12 19 -14 24 -6 5 9 11 6 21 -6 12 -18 13 -18 13 -1 0 13
5 16 16 12 46 -17 -29 148 -108 241 -29 35 -107 112 -174 172 -179 162 -267
294 -315 476 -27 102 -37 299 -19 387 42 215 166 387 408 568 308 230 609 322
1001 307 303 -11 550 -108 789 -309 140 -118 254 -278 341 -483 49 -115 139
-408 177 -575 30 -132 42 -315 26 -374 -19 -66 18 -115 60 -83 23 18 29 60 30
197 1 116 -13 199 -64 390 -11 41 -26 100 -34 131 -14 54 -65 202 -84 244 -5
11 -21 49 -36 85 -31 71 -116 224 -173 310 -20 30 -40 63 -46 72 -25 41 -93
117 -142 157 -29 24 -53 47 -53 52 0 5 10 14 23 20 60 27 170 105 201 141 26
31 27 32 120 33 85 2 217 -12 302 -30 35 -8 52 6 29 25 -28 24 -123 41 -249
45 -72 3 -134 9 -139 14 -5 5 -6 18 -2 30 4 15 13 20 28 17 12 -3 58 -8 102
-11 100 -8 145 -13 215 -27 90 -16 114 -15 118 5 5 26 -27 52 -68 55 -19 1
-47 5 -62 8 -14 3 -83 11 -153 18 -138 15 -167 29 -180 86 -6 28 -44 69 -82
89 -34 17 -100 13 -143 -9 -22 -11 -44 -20 -49 -20 -6 0 -23 25 -38 57 -45 90
-124 117 -216 73 -58 -29 -70 -39 -92 -85 -33 -70 -31 -166 5 -250 5 -11 18
-41 29 -67 l20 -47 -37 14 c-20 8 -49 16 -65 19 -53 9 -118 50 -170 108 -188
210 -203 223 -322 278 -90 42 -133 50 -285 49 -124 0 -139 -2 -187 -25z m322
-70 c81 -20 149 -55 222 -114 57 -46 153 -152 153 -169 0 -4 -28 -4 -62 0 -96
12 -325 12 -403 -1 -38 -6 -102 -20 -142 -32 -39 -11 -78 -18 -86 -15 -17 6
-47 120 -47 179 0 85 64 154 155 169 51 8 133 1 210 -17z m902 -26 c6 -7 16
-51 23 -98 15 -109 23 -130 54 -130 17 0 33 12 53 38 16 22 34 37 42 34 8 -3
11 0 7 6 -9 15 29 52 54 52 11 0 20 -4 20 -10 0 -5 4 -10 10 -10 5 0 7 7 4 15
-4 10 0 15 13 15 28 0 43 -20 43 -58 l0 -34 -68 4 c-57 2 -68 0 -65 -12 9 -38
-40 -50 -50 -12 -4 15 -5 15 -6 -1 0 -10 10 -22 24 -29 14 -6 25 -15 25 -20 0
-4 8 -8 18 -8 16 1 16 2 -1 15 -17 12 -12 13 37 13 44 -1 56 -4 57 -17 0 -12
2 -12 8 3 6 15 10 16 15 7 14 -22 -6 -29 -92 -34 -46 -3 -88 -9 -93 -14 -15
-15 1 -43 22 -43 11 0 22 -7 25 -15 4 -8 10 -15 15 -15 4 0 6 7 2 16 -5 12 0
15 23 12 16 -2 27 -7 24 -13 -3 -5 -11 -9 -18 -8 -7 0 -11 -1 -8 -4 6 -7 -19
-33 -33 -33 -5 0 -23 -11 -39 -25 -46 -38 -78 -47 -123 -34 -21 7 -39 16 -39
21 0 4 -6 8 -14 8 -16 0 -66 38 -66 51 0 16 18 10 23 -8 2 -10 4 0 4 22 1 36
-22 113 -37 125 -26 20 -45 200 -19 184 5 -3 6 2 3 11 -8 19 35 56 59 51 9 -2
17 0 17 5 0 12 32 -4 47 -23z m-2069 -628 c97 -11 202 -38 202 -53 0 -5 -28
-42 -63 -81 -114 -128 -164 -215 -212 -375 l-32 -103 -32 77 c-51 121 -64 200
-58 345 7 148 11 166 46 185 31 17 43 18 149 5z"/>
<path d="M2676 3604 c-9 -24 -7 -28 9 -14 17 14 20 30 6 30 -5 0 -12 -7 -15
-16z"/>
<path d="M2715 3609 c-4 -6 -5 -12 -2 -15 2 -3 7 2 10 11 7 17 1 20 -8 4z"/>
<path d="M2690 3560 c0 -5 5 -10 10 -10 6 0 10 5 10 10 0 6 -4 10 -10 10 -5 0
-10 -4 -10 -10z"/>
<path d="M2746 3518 c3 -24 11 -47 16 -53 7 -7 9 -2 4 15 -3 14 -6 37 -6 53 0
15 -4 27 -10 27 -5 0 -7 -18 -4 -42z"/>
<path d="M2645 3539 c-10 -15 1 -23 20 -15 9 3 13 10 10 16 -8 13 -22 13 -30
-1z"/>
<path d="M2684 3489 c-3 -6 -1 -16 5 -22 17 -17 13 -34 -11 -57 -21 -20 -21
-21 -4 -38 18 -16 18 -16 13 7 -4 17 -1 24 14 28 15 4 19 14 19 49 0 32 -4 44
-14 44 -8 0 -18 -5 -22 -11z"/>
<path d="M3040 3486 c0 -9 -5 -16 -11 -16 -5 0 -7 -4 -4 -10 3 -5 13 -10 21
-10 16 0 19 36 4 45 -5 3 -10 -1 -10 -9z"/>
<path d="M2980 3479 c0 -6 -7 -9 -15 -5 -9 3 -15 0 -15 -10 0 -13 6 -15 27 -9
34 8 37 11 28 24 -8 14 -25 14 -25 0z"/>
<path d="M2635 3450 c3 -5 10 -10 16 -10 5 0 9 5 9 10 0 6 -7 10 -16 10 -8 0
-12 -4 -9 -10z"/>
<path d="M2732 3405 c0 -16 2 -22 5 -12 2 9 2 23 0 30 -3 6 -5 -1 -5 -18z"/>
<path d="M2916 3415 c4 -8 8 -15 10 -15 2 0 4 7 4 15 0 8 -4 15 -10 15 -5 0
-7 -7 -4 -15z"/>
<path d="M2760 3400 c0 -11 4 -20 9 -20 5 0 7 9 4 20 -3 11 -7 20 -9 20 -2 0
-4 -9 -4 -20z"/>
<path d="M2836 3333 c-6 -14 -5 -15 5 -6 7 7 10 15 7 18 -3 3 -9 -2 -12 -12z"/>
<path d="M2701 3324 c0 -11 3 -14 6 -6 3 7 2 16 -1 19 -3 4 -6 -2 -5 -13z"/>
<path d="M2720 3320 c0 -19 3 -21 12 -12 9 9 9 15 0 24 -9 9 -12 7 -12 -12z"/>
<path d="M2709 3275 c-5 -20 -3 -65 4 -65 4 0 7 6 7 14 0 26 83 37 133 18 29
-12 35 -27 15 -35 -10 -4 -10 -6 -1 -6 7 -1 17 8 23 19 6 11 16 17 25 14 26
-11 16 4 -19 25 -26 17 -50 21 -110 21 -42 0 -77 -2 -77 -5z"/>
<path d="M2750 3199 c0 -5 5 -7 10 -4 6 3 10 8 10 11 0 2 -4 4 -10 4 -5 0 -10
-5 -10 -11z"/>
<path d="M2785 3186 c-18 -14 -18 -15 -2 -16 9 0 17 5 17 10 0 6 5 10 11 10 5
0 7 -4 4 -10 -7 -12 2 -12 30 0 16 7 17 9 3 9 -9 1 -22 3 -30 6 -7 3 -22 -1
-33 -9z"/>
<path d="M2133 3198 c-34 -43 -64 -217 -43 -243 31 -37 80 1 80 63 0 18 7 63
17 99 15 63 15 67 -2 79 -23 17 -40 18 -52 2z"/>
<path d="M3052 3098 c-13 -13 -16 -54 -4 -60 4 -1 42 -45 84 -96 125 -149 222
-302 272 -427 44 -109 60 -134 88 -135 39 0 43 29 14 103 -15 35 -26 69 -26
75 0 7 -4 12 -9 12 -5 0 -11 10 -15 23 -17 69 -120 231 -236 372 -127 153
-139 162 -168 133z"/>
<path d="M1860 2821 c-5 -11 -10 -28 -10 -38 0 -28 -47 -96 -84 -121 -43 -29
-91 -43 -126 -36 -46 10 -64 -8 -75 -72 -13 -73 -29 -84 -85 -59 -31 14 -46
16 -58 8 -27 -17 -25 -39 7 -75 26 -29 35 -33 80 -32 63 1 97 23 130 88 17 33
32 48 50 52 117 25 251 164 251 261 0 45 -59 62 -80 24z"/>
<path d="M832 2158 c-6 -6 -12 -22 -12 -35 0 -27 47 -43 130 -43 73 0 105 17
105 55 l0 30 -105 3 c-73 2 -109 -1 -118 -10z"/>
<path d="M1245 1083 c-4 -13 -11 -23 -16 -23 -15 0 -10 -26 9 -43 22 -20 56
-22 70 -4 11 14 22 77 13 77 -3 0 -15 -7 -25 -15 -27 -20 -34 -19 -39 8 l-4
22 -8 -22z"/>
</g>
</svg>
